<svg width="32" height="32" fill="none" xmlns="http://www.w3.org/2000/svg"><circle cx="16" cy="16" r="16" fill="#fff"/><path d="M24.75 11.75h-1.025L21.6 5.9a2.51 2.51 0 0 0-2.35-1.65h-2c-.688 0-1.25.562-1.25 1.25 0 .687.563 1.25 1.25 1.25h2l1.825 5h-6.012l-.45-1.25h.112c.688 0 1.25-.563 1.25-1.25 0-.688-.563-1.25-1.25-1.25H11c-.688 0-1.25.562-1.25 1.25 0 .687.563 1.25 1.25 1.25h.938l2.274 6.25h-.837c-.55-2.788-2.887-4.85-5.813-4.988C4.063 11.587 1 14.5 1 18c0 3.5 2.75 6.25 6.25 6.25 3.075 0 5.563-2.113 6.125-5h5.25c.55 2.787 2.887 4.85 5.813 4.987C27.938 24.4 31 21.5 31 17.987c0-3.487-2.75-6.237-6.25-6.237ZM8.5 19.25h2.275c-.525 1.537-2 2.6-3.775 2.487-1.862-.112-3.413-1.687-3.5-3.562-.087-2.188 1.588-3.925 3.75-3.925a3.686 3.686 0 0 1 3.525 2.5H8.5c-.688 0-1.25.562-1.25 1.25 0 .687.563 1.25 1.25 1.25Zm10.125-2.5h-1.75l-.912-2.5h3.787a5.917 5.917 0 0 0-1.125 2.5Zm5.975 5c-1.925-.075-3.55-1.713-3.6-3.65a3.728 3.728 0 0 1 1.313-2.95l.774 2.125c.238.65.95.987 1.6.75.65-.238.988-.95.75-1.6l-.787-2.163.013-.012A3.71 3.71 0 0 1 28.5 18c0 2.15-1.725 3.825-3.9 3.75Z" fill="url(#a)"/><defs><linearGradient id="a" x1="16" y1="4.25" x2="16" y2="24.25" gradientUnits="userSpaceOnUse"><stop stop-color="#FFB60D"/><stop offset="1" stop-color="#F2A50C"/><stop offset="1" stop-color="#E59317"/></linearGradient></defs></svg>